<?xml version="1.0" encoding="iso-8859-1"?>
<!-- Generator: Adobe Illustrator 19.0.0, SVG Export Plug-In . SVG Version: 6.00 Build 0)  -->
<svg version="1.1" id="Capa_1" xmlns="http://www.w3.org/2000/svg" xmlns:xlink="http://www.w3.org/1999/xlink" x="0px" y="0px"
	 viewBox="0 0 512.003 512.003" style="enable-background:new 0 0 512.003 512.003;" xml:space="preserve">
<rect x="-13.89" y="376.039" transform="matrix(-0.7071 0.7071 -0.7071 -0.7071 467.9956 618.2263)" style="fill:#7D8AFF;" width="239.698" height="59.999"/>
<rect x="101.567" y="296.799" transform="matrix(-0.7071 -0.7071 0.7071 -0.7071 -95.6234 793.6879)" style="fill:#6E76E5;" width="30" height="239.698"/>
<path style="fill:#ACE3FC;" d="M317.003,390.002c-107.523,0-195-87.477-195-195s87.477-195,195-195s195,87.477,195,195
	S424.526,390.002,317.003,390.002z"/>
<path style="fill:#86D6F2;" d="M454.824,57.181L179.182,332.823c35.309,35.31,84.059,57.179,137.821,57.179
	c107.523,0,195-87.477,195-195C512.003,141.24,490.134,92.49,454.824,57.181z"/>
<path style="fill:#FFFFFF;" d="M317.003,30.002c-90.981,0-165,74.019-165,165s74.019,165,165,165s165-74.019,165-165
	S407.984,30.002,317.003,30.002z"/>
<path style="fill:#DCF4FF;" d="M433.621,78.384L200.385,311.62c29.877,29.877,71.127,48.382,116.618,48.382
	c90.981,0,165-74.019,165-165C482.003,149.511,463.498,108.261,433.621,78.384z"/>
<g>
</g>
<g>
</g>
<g>
</g>
<g>
</g>
<g>
</g>
<g>
</g>
<g>
</g>
<g>
</g>
<g>
</g>
<g>
</g>
<g>
</g>
<g>
</g>
<g>
</g>
<g>
</g>
<g>
</g>
</svg>
